<svg width="100" height="100" viewBox="0 0 100 100" fill="none" xmlns="http://www.w3.org/2000/svg">
  <defs>
    <linearGradient id="nightSky" x1="0" y1="0" x2="1" y2="1">
      <stop offset="0%" stop-color="#0d1b2a"/>
      <stop offset="50%" stop-color="#1b263b"/>
      <stop offset="100%" stop-color="#415a77"/>
    </linearGradient>
  </defs>
  
  <!-- Heart Shape with Night Sky Gradient -->
  <path d="M50 88.6L44.2 83.2C23.6 64.2 10 51.7 10 36.4C10 23.9 19.8 14.1 32.3 14.1C39.4 14.1 46.2 17.4 50 22.5C53.8 17.4 60.6 14.1 67.7 14.1C80.2 14.1 90 23.9 90 36.4C90 51.7 76.4 64.2 55.8 83.2L50 88.6Z" 
        fill="url(#nightSky)" stroke="#fdd835" stroke-width="2"/>
  
  <!-- Van Gogh Style Swirls & Stars -->
  <!-- Big Star Left -->
  <circle cx="30" cy="35" r="4" fill="#fdd835" filter="blur(1px)"/>
  <circle cx="30" cy="35" r="2" fill="#ffffff"/>
  
  <!-- Big Star Right -->
  <circle cx="70" cy="35" r="5" fill="#fdd835" filter="blur(1px)"/>
  <circle cx="70" cy="35" r="2.5" fill="#ffffff"/>

  <!-- Small Stars -->
  <circle cx="50" cy="55" r="2" fill="#fff176"/>
  <circle cx="20" cy="50" r="1.5" fill="#fff176"/>
  <circle cx="80" cy="50" r="1.5" fill="#fff176"/>

  <!-- Swirls -->
  <path d="M25 45 C 35 35, 45 55, 55 45" stroke="#81d4fa" stroke-width="2" stroke-linecap="round" stroke-opacity="0.6" fill="none"/>
  <path d="M60 40 C 70 50, 80 30, 85 40" stroke="#4fc3f7" stroke-width="1.5" stroke-linecap="round" stroke-opacity="0.6" fill="none"/>
  <path d="M35 25 Q 50 15 65 25" stroke="#b39ddb" stroke-width="1" stroke-dasharray="2 2" stroke-opacity="0.5" fill="none"/>
</svg>